<?xml version="1.0" encoding="UTF-8"?>
<svg width="76px" height="128px" viewBox="0 0 76 128" version="1.1" xmlns="http://www.w3.org/2000/svg" xmlns:xlink="http://www.w3.org/1999/xlink">
    <!-- Generator: Sketch 61.2 (89653) - https://sketch.com -->
    <title>boba</title>
    <desc>Created with Sketch.</desc>
    <g id="boba" stroke="none" stroke-width="1" fill="none" fill-rule="evenodd">
        <g id="Boba-drink" transform="translate(2.000000, 3.000000)">
            <line x1="41" y1="45" x2="58.4633055" y2="0.732551234" id="Straw" stroke="#676666" stroke-width="6" stroke-linecap="round"></line>
            <path d="M12.2097638,44.6230469 L71.7902362,44.6230469 C72.8948057,44.6230469 73.7902362,45.5184774 73.7902362,46.6230469 C73.7902362,46.6894429 73.7869299,46.7557978 73.7803295,46.821865 L66.3598902,121.097636 C66.1555896,123.142608 64.4348551,124.7 62.3797036,124.7 L21.6202964,124.7 C19.5651449,124.7 17.8444104,123.142608 17.6401098,121.097636 L10.2196705,46.821865 C10.1098663,45.7227668 10.9118475,44.7427578 12.0109457,44.6329536 C12.0770129,44.6263532 12.1433678,44.6230469 12.2097638,44.6230469 Z" id="Drink" fill="#E9DAC2"></path>
            <g id="Boba" transform="translate(20.000000, 84.000000)" fill="#4A4A4A">
                <g id="boba" transform="translate(0.000000, 11.000000)">
                    <circle id="Oval" cx="3.5" cy="3.5" r="3.5"></circle>
                </g>
                <g id="boba" transform="translate(21.000000, 0.000000)">
                    <circle id="Oval" cx="3.5" cy="3.5" r="3.5"></circle>
                </g>
                <g id="boba" transform="translate(28.000000, 11.000000)">
                    <circle id="Oval" cx="3.5" cy="3.5" r="3.5"></circle>
                </g>
                <g id="boba" transform="translate(14.000000, 11.000000)">
                    <circle id="Oval" cx="3.5" cy="3.5" r="3.5"></circle>
                </g>
                <g id="boba" transform="translate(21.000000, 21.000000)">
                    <circle id="Oval" cx="3.5" cy="3.5" r="3.5"></circle>
                </g>
                <g id="boba" transform="translate(7.000000, 21.000000)">
                    <circle id="Oval" cx="3.5" cy="3.5" r="3.5"></circle>
                </g>
            </g>
            <path d="M3.20853507,35.1896182 L10.6551654,113.379236 C10.8506837,115.432179 12.5749152,117 14.6371473,117 L55.3628527,117 C57.4250848,117 59.1493163,115.432179 59.3448346,113.379236 L66.7914649,35.1896182 C66.8961882,34.0900242 66.0896861,33.1137323 64.9900922,33.0090091 C64.9270643,33.0030064 64.863787,33 64.800474,33 L5.19952601,33 C4.09495651,33 3.19952601,33.8954305 3.19952601,35 C3.19952601,35.063313 3.20253241,35.1265904 3.20853507,35.1896182 Z" id="Cup-border" stroke="#555555" stroke-width="4" stroke-linejoin="round"></path>
            <line x1="0" y1="33" x2="69" y2="33" id="Lid" stroke="#BD8C7D" stroke-width="5" stroke-linecap="round"></line>
        </g>
    </g>
</svg>